<svg width="30" height="30" viewBox="0 0 30 30" fill="none" xmlns="http://www.w3.org/2000/svg">
<path d="M15.0131 20.8506C14.4006 20.8506 13.9131 20.3506 13.9131 19.7506C13.9131 19.1506 14.4006 18.6631 15.0006 18.6631C15.6131 18.6631 16.1006 19.1506 16.1006 19.7506C16.1006 20.3506 15.6131 20.8506 15.0131 20.8506Z" fill="#828282"/>
<path d="M13.9004 10.2616C13.9004 9.66287 14.4004 9.16162 15.0004 9.16162C15.6004 9.16162 16.0879 9.66287 16.0879 10.2616V15.7866C16.0879 16.3879 15.6004 16.8741 15.0004 16.8741C14.4004 16.8741 13.9004 16.3879 13.9004 15.7866V10.2616Z" fill="#828282"/>
<path d="M15 2.49902C8.1 2.49902 2.5 8.10027 2.5 14.999C2.5 21.9003 8.1 27.499 15 27.499C21.9125 27.499 27.5 21.9003 27.5 14.999C27.5 8.10027 21.9125 2.49902 15 2.49902V2.49902Z" stroke="#828282" stroke-width="1.5"/>
</svg>
