<svg width="48" height="48" viewBox="0 0 48 48" fill="none" xmlns="http://www.w3.org/2000/svg">
<rect width="48" height="48" rx="15" fill="#7C40C6"/>
<path fill-rule="evenodd" clip-rule="evenodd" d="M12.3333 24.0175C12.3333 17.8716 17.2449 12.3333 24.0233 12.3333C30.6499 12.3333 35.6666 17.7665 35.6666 23.9825C35.6666 31.1916 29.7866 35.6666 23.9999 35.6666C22.0866 35.6666 19.9633 35.1525 18.2599 34.1477C17.6649 33.7855 17.1633 33.5168 16.5216 33.7271L14.1649 34.4281C13.5699 34.6151 13.0333 34.1477 13.2083 33.5168L13.9899 30.8995C14.1183 30.5373 14.0949 30.1517 13.9083 29.8479C12.9049 28.0018 12.3333 25.9805 12.3333 24.0175ZM22.4833 24.0175C22.4833 24.8471 23.1483 25.5131 23.9766 25.5248C24.8049 25.5248 25.4699 24.8471 25.4699 24.0292C25.4699 23.1996 24.8049 22.5336 23.9766 22.5336C23.1599 22.5219 22.4833 23.1996 22.4833 24.0175ZM27.8616 24.0292C27.8616 24.8471 28.5266 25.5248 29.3549 25.5248C30.1833 25.5248 30.8483 24.8471 30.8483 24.0292C30.8483 23.1996 30.1833 22.5336 29.3549 22.5336C28.5266 22.5336 27.8616 23.1996 27.8616 24.0292ZM18.5983 25.5248C17.7816 25.5248 17.1049 24.8471 17.1049 24.0292C17.1049 23.1996 17.7699 22.5336 18.5983 22.5336C19.4266 22.5336 20.0916 23.1996 20.0916 24.0292C20.0916 24.8471 19.4266 25.5131 18.5983 25.5248Z" fill="white"/>
</svg>
