<svg width="150" height="24" viewBox="0 0 150 24" fill="none" xmlns="http://www.w3.org/2000/svg">
<path d="M30.8214 15.4275C30.5328 15.6256 30.2016 15.8092 29.8257 15.9524C29.0723 16.2451 28.283 16.3295 27.7511 16.2373C28.1832 16.0273 28.6248 15.7842 29.0561 15.5035C29.1142 15.4649 29.5706 15.1427 29.5876 15.1343C29.8962 14.8996 30.1982 14.6598 30.4692 14.4129C30.49 14.3961 30.641 14.2624 30.695 14.2032C30.7405 14.1574 30.8706 14.031 30.8917 14.015C32.6527 12.2406 33.3833 10.1985 32.5148 9.02441C32.0749 8.42056 31.2726 8.13893 30.3014 8.1604C29.9295 8.44144 29.4792 8.7016 28.9667 8.89824C28.1404 9.22047 27.3132 9.3301 26.6431 9.25063C27.3034 8.95712 27.9819 8.5882 28.6448 8.13893C28.7081 8.09688 28.7709 8.05511 28.8256 8.00842C31.8785 5.83694 33.6719 2.57435 32.4943 0.964079C32.1498 0.497995 31.6104 0.204481 30.9461 0.0788965C30.892 0.066135 30.6034 0.0330712 30.5901 0.0330712C30.4825 0.0208898 30.3607 0.0118987 30.2763 0.0118987C26.434 -0.189385 21.6669 2.28489 18.4977 6.4405C14.0889 12.2243 13.9229 19.445 18.1252 22.5617C20.6136 24.4113 24.0752 24.4072 27.3991 22.9016C27.6056 22.8051 28.3157 22.4272 28.6251 22.2305C28.8175 22.1049 29.4827 21.6473 29.6383 21.5179C31.8502 19.7353 32.8911 17.4081 31.9595 16.1453C31.6952 15.7848 31.3056 15.5493 30.8214 15.4275Z" fill="#FC004A"/>
<path d="M6.52799 17.8591V2.32985C6.52799 1.31589 5.71703 0.497129 4.70998 0.464355H0.000976562V21.7682C0.0293197 22.7578 0.825241 23.5545 1.81523 23.58H12.4158V17.8588L6.52799 17.8591Z" fill="#FC004A"/>
<path d="M42.2748 6.9818C42.2748 6.28484 42.7225 5.73581 43.9259 5.73581C44.9095 5.73581 45.9334 5.92433 46.9158 6.32777C47.664 6.62534 48.3879 7.05256 49.0479 7.60595L51.0146 4.39382C51.7243 3.25747 51.5525 2.25889 50.4529 1.65591C50.4281 1.64343 50.4075 1.63473 50.387 1.62139C48.6011 0.616134 46.4655 0.0874023 44.1723 0.0874023C38.5063 0.0874023 35.6043 3.76068 35.6043 7.5056C35.6043 15.7501 45.7995 14.3956 45.7995 16.9624C45.7995 17.8267 44.8997 18.3462 43.6917 18.3462C41.4462 18.3462 39.3381 17.3775 37.9539 15.9221L35.9809 19.1603C35.3709 20.1 35.3484 21.3446 36.3574 22.0499C36.3704 22.0662 36.3933 22.0702 36.4106 22.0873C38.2801 23.3069 40.6399 23.9998 43.7293 23.9998C49.0821 23.9998 52.3996 21.0136 52.3996 16.3081C52.3996 8.50824 42.2748 9.40532 42.2748 6.9818Z" fill="#FC004A"/>
<path d="M76.6329 1.77757C76.4156 1.10614 75.8797 0.464878 74.593 0.464878H68.3318L61.5624 23.5809H66.6422C67.4543 23.555 68.1351 23.0138 68.3697 22.2803L68.8671 20.599H75.6825L76.1432 22.1959C76.3535 22.9756 77.0594 23.5553 77.8964 23.5809H83.0234L76.6329 1.77757ZM70.5478 14.8778L72.3088 8.38222L74.0444 14.8778H70.5478Z" fill="#FC004A"/>
<path d="M90.3913 0.464355H85.6826V21.7386C85.6956 22.745 86.5023 23.5548 87.4966 23.5803H92.2105V2.30114C92.2105 1.26079 91.3862 0.497709 90.3913 0.464355Z" fill="#FC004A"/>
<path d="M103.475 17.8591V2.32985C103.472 1.31589 102.661 0.497129 101.653 0.464355H96.9443V21.7682C96.973 22.7578 97.7761 23.5545 98.7586 23.58H109.369V17.8588L103.475 17.8591Z" fill="#FC004A"/>
<path d="M127.763 15.4275C127.481 15.6256 127.142 15.8092 126.765 15.9524C126.012 16.2451 125.22 16.3295 124.691 16.2373C125.13 16.0273 125.572 15.7842 126.004 15.5035C126.059 15.4649 126.517 15.1427 126.53 15.1343C126.843 14.8996 127.136 14.6598 127.414 14.4129C127.438 14.3961 127.584 14.2624 127.639 14.2032C127.693 14.1574 127.819 14.031 127.83 14.015C129.596 12.2406 130.328 10.1985 129.466 9.02441C129.019 8.42056 128.224 8.13893 127.245 8.1604C126.874 8.44144 126.421 8.7016 125.916 8.89824C125.087 9.22047 124.26 9.3301 123.586 9.25063C124.256 8.95712 124.928 8.5882 125.594 8.13893C125.653 8.09688 125.71 8.05511 125.777 8.00842C128.826 5.83694 130.619 2.57435 129.441 0.964079C129.098 0.497995 128.559 0.204481 127.889 0.0788965C127.83 0.066135 127.551 0.0330712 127.534 0.0330712C127.434 0.0208898 127.305 0.0118987 127.22 0.0118987C123.381 -0.189385 118.607 2.28489 115.439 6.4405C111.029 12.2243 110.869 19.445 115.063 22.5617C117.556 24.4113 121.019 24.4072 124.343 22.9016C124.544 22.8051 125.255 22.4272 125.571 22.2305C125.765 22.1049 126.426 21.6473 126.579 21.5179C128.797 19.7353 129.83 17.4081 128.906 16.1453C128.646 15.7848 128.25 15.5493 127.763 15.4275Z" fill="#FC004A"/>
<path d="M139.218 6.9818C139.218 6.28484 139.667 5.73581 140.879 5.73581C141.853 5.73581 142.883 5.92433 143.861 6.32777C144.614 6.62534 145.338 7.05256 145.994 7.60595L147.959 4.39382C148.67 3.25747 148.499 2.25889 147.395 1.65591C147.378 1.64343 147.358 1.63473 147.332 1.62139C145.546 0.616134 143.414 0.0874023 141.117 0.0874023C135.452 0.0874023 132.549 3.76068 132.549 7.5056C132.549 15.7501 142.745 14.3956 142.745 16.9624C142.745 17.8267 141.845 18.3462 140.636 18.3462C138.386 18.3462 136.283 17.3775 134.899 15.9221L132.929 19.1603C132.316 20.1 132.29 21.3446 133.301 22.0499C133.323 22.0662 133.336 22.0702 133.356 22.0873C135.23 23.3069 137.579 23.9998 140.669 23.9998C146.026 23.9998 149.343 21.0136 149.343 16.3081C149.343 8.50824 139.218 9.40532 139.218 6.9818Z" fill="#FC004A"/>
</svg>
