<svg width="24" height="24" viewBox="0 0 24 24" fill="none" xmlns="http://www.w3.org/2000/svg">
<path d="M5.50008 12.0001C5.50008 13.1967 4.53003 14.1667 3.33342 14.1667C2.1368 14.1667 1.16675 13.1967 1.16675 12.0001C1.16675 10.8035 2.1368 9.83341 3.33342 9.83341C4.53003 9.83341 5.50008 10.8035 5.50008 12.0001Z" fill="#333333"/>
<path d="M14.1668 12.0001C14.1668 13.1967 13.1967 14.1667 12.0001 14.1667C10.8035 14.1667 9.83342 13.1967 9.83342 12.0001C9.83342 10.8035 10.8035 9.83341 12.0001 9.83341C13.1967 9.83341 14.1668 10.8035 14.1668 12.0001Z" fill="#333333"/>
<path d="M22.8334 12.0001C22.8334 13.1967 21.8634 14.1667 20.6668 14.1667C19.4701 14.1667 18.5001 13.1967 18.5001 12.0001C18.5001 10.8035 19.4701 9.83342 20.6668 9.83342C21.8634 9.83342 22.8334 10.8035 22.8334 12.0001Z" fill="#333333"/>
<path d="M5.50008 3.33341C5.50008 4.53003 4.53003 5.50008 3.33342 5.50008C2.1368 5.50008 1.16675 4.53003 1.16675 3.33341C1.16675 2.1368 2.1368 1.16675 3.33342 1.16675C4.53003 1.16675 5.50008 2.1368 5.50008 3.33341Z" fill="#333333"/>
<path d="M14.1668 3.33341C14.1668 4.53003 13.1967 5.50008 12.0001 5.50008C10.8035 5.50008 9.83342 4.53003 9.83342 3.33341C9.83342 2.1368 10.8035 1.16675 12.0001 1.16675C13.1967 1.16675 14.1668 2.1368 14.1668 3.33341Z" fill="#333333"/>
<path d="M22.8334 3.33341C22.8334 4.53003 21.8634 5.50008 20.6668 5.50008C19.4701 5.50008 18.5001 4.53003 18.5001 3.33341C18.5001 2.1368 19.4701 1.16675 20.6668 1.16675C21.8634 1.16675 22.8334 2.1368 22.8334 3.33341Z" fill="#333333"/>
<path d="M5.50008 20.6667C5.50008 21.8634 4.53003 22.8334 3.33341 22.8334C2.1368 22.8334 1.16675 21.8634 1.16675 20.6667C1.16675 19.4701 2.1368 18.5001 3.33341 18.5001C4.53003 18.5001 5.50008 19.4701 5.50008 20.6667Z" fill="#333333"/>
<path d="M14.1668 20.6667C14.1668 21.8634 13.1967 22.8334 12.0001 22.8334C10.8035 22.8334 9.83342 21.8634 9.83342 20.6667C9.83342 19.4701 10.8035 18.5001 12.0001 18.5001C13.1967 18.5001 14.1668 19.4701 14.1668 20.6667Z" fill="#333333"/>
<path d="M22.8334 20.6667C22.8334 21.8634 21.8634 22.8334 20.6668 22.8334C19.4701 22.8334 18.5001 21.8634 18.5001 20.6667C18.5001 19.4701 19.4701 18.5001 20.6668 18.5001C21.8634 18.5001 22.8334 19.4701 22.8334 20.6667Z" fill="#333333"/>
<path d="M5.50008 12.0001C5.50008 13.1967 4.53003 14.1667 3.33342 14.1667C2.1368 14.1667 1.16675 13.1967 1.16675 12.0001C1.16675 10.8035 2.1368 9.83341 3.33342 9.83341C4.53003 9.83341 5.50008 10.8035 5.50008 12.0001Z" stroke="#333333" stroke-width="1.5"/>
<path d="M14.1668 12.0001C14.1668 13.1967 13.1967 14.1667 12.0001 14.1667C10.8035 14.1667 9.83342 13.1967 9.83342 12.0001C9.83342 10.8035 10.8035 9.83341 12.0001 9.83341C13.1967 9.83341 14.1668 10.8035 14.1668 12.0001Z" stroke="#333333" stroke-width="1.5"/>
<path d="M22.8334 12.0001C22.8334 13.1967 21.8634 14.1667 20.6668 14.1667C19.4701 14.1667 18.5001 13.1967 18.5001 12.0001C18.5001 10.8035 19.4701 9.83342 20.6668 9.83342C21.8634 9.83342 22.8334 10.8035 22.8334 12.0001Z" stroke="#333333" stroke-width="1.5"/>
<path d="M5.50008 3.33341C5.50008 4.53003 4.53003 5.50008 3.33342 5.50008C2.1368 5.50008 1.16675 4.53003 1.16675 3.33341C1.16675 2.1368 2.1368 1.16675 3.33342 1.16675C4.53003 1.16675 5.50008 2.1368 5.50008 3.33341Z" stroke="#333333" stroke-width="1.5"/>
<path d="M14.1668 3.33341C14.1668 4.53003 13.1967 5.50008 12.0001 5.50008C10.8035 5.50008 9.83342 4.53003 9.83342 3.33341C9.83342 2.1368 10.8035 1.16675 12.0001 1.16675C13.1967 1.16675 14.1668 2.1368 14.1668 3.33341Z" stroke="#333333" stroke-width="1.5"/>
<path d="M22.8334 3.33341C22.8334 4.53003 21.8634 5.50008 20.6668 5.50008C19.4701 5.50008 18.5001 4.53003 18.5001 3.33341C18.5001 2.1368 19.4701 1.16675 20.6668 1.16675C21.8634 1.16675 22.8334 2.1368 22.8334 3.33341Z" stroke="#333333" stroke-width="1.5"/>
<path d="M5.50008 20.6667C5.50008 21.8634 4.53003 22.8334 3.33341 22.8334C2.1368 22.8334 1.16675 21.8634 1.16675 20.6667C1.16675 19.4701 2.1368 18.5001 3.33341 18.5001C4.53003 18.5001 5.50008 19.4701 5.50008 20.6667Z" stroke="#333333" stroke-width="1.5"/>
<path d="M14.1668 20.6667C14.1668 21.8634 13.1967 22.8334 12.0001 22.8334C10.8035 22.8334 9.83342 21.8634 9.83342 20.6667C9.83342 19.4701 10.8035 18.5001 12.0001 18.5001C13.1967 18.5001 14.1668 19.4701 14.1668 20.6667Z" stroke="#333333" stroke-width="1.5"/>
<path d="M22.8334 20.6667C22.8334 21.8634 21.8634 22.8334 20.6668 22.8334C19.4701 22.8334 18.5001 21.8634 18.5001 20.6667C18.5001 19.4701 19.4701 18.5001 20.6668 18.5001C21.8634 18.5001 22.8334 19.4701 22.8334 20.6667Z" stroke="#333333" stroke-width="1.5"/>
</svg>
