<svg width="24" height="28" viewBox="0 0 24 28" fill="none" xmlns="http://www.w3.org/2000/svg">
<path fill-rule="evenodd" clip-rule="evenodd" d="M7.10019 7.3125V7.325C6.56144 7.325 6.12519 7.7625 6.12519 8.3C6.12519 8.8375 6.56144 9.275 7.10019 9.275H10.8364C11.3752 9.275 11.8127 8.8375 11.8127 8.28625C11.8127 7.75 11.3752 7.3125 10.8364 7.3125H7.10019ZM16.9002 14.925H7.10019C6.56144 14.925 6.12519 14.4875 6.12519 13.95C6.12519 13.4125 6.56144 12.9738 7.10019 12.9738H16.9002C17.4377 12.9738 17.8752 13.4125 17.8752 13.95C17.8752 14.4875 17.4377 14.925 16.9002 14.925ZM16.9002 20.6375H7.1002C6.7252 20.6875 6.3627 20.5 6.1627 20.1875C5.9627 19.8625 5.9627 19.45 6.1627 19.1375C6.3627 18.8125 6.7252 18.6375 7.1002 18.675H16.9002C17.3989 18.725 17.7752 19.15 17.7752 19.6625C17.7752 20.1613 17.3989 20.5875 16.9002 20.6375Z" fill="#828282"/>
<path d="M17.2387 1.5H6.7625C2.9625 1.5 0.75 3.725 0.75 7.5375V20.45C0.75 24.325 2.9625 26.5 6.7625 26.5H17.2387C21.1 26.5 23.25 24.325 23.25 20.45V7.5375C23.25 3.725 21.1 1.5 17.2387 1.5" stroke="#828282" stroke-width="1.5"/>
</svg>
