<svg width="26" height="30" viewBox="0 0 26 30" fill="none" xmlns="http://www.w3.org/2000/svg">
<path fill-rule="evenodd" clip-rule="evenodd" d="M22.5016 10.4614C22.5016 12.2406 22.9719 13.2893 24.0067 14.4978C24.791 15.3882 25.0416 16.531 25.0416 17.7709C25.0416 19.0094 24.6347 20.1851 23.8195 21.1397C22.7522 22.284 21.2471 23.0145 19.711 23.1415C17.485 23.3312 15.2576 23.491 13.0006 23.491C10.7422 23.491 8.51624 23.3954 6.29024 23.1415C4.75273 23.0145 3.24761 22.284 2.18178 21.1397C1.36656 20.1851 0.958252 19.0094 0.958252 17.7709C0.958252 16.531 1.21028 15.3882 1.99311 14.4978C3.06035 13.2893 3.49964 12.2406 3.49964 10.4614V9.85784C3.49964 7.47507 4.0938 5.91699 5.31733 4.39172C7.13643 2.16732 10.0523 0.833252 12.9373 0.833252H13.064C16.0109 0.833252 19.0211 2.23153 20.8092 4.55153C21.9694 6.0454 22.5016 7.53785 22.5016 9.85784V10.4614ZM8.85429 26.4194C8.85429 25.706 9.509 25.3793 10.1144 25.2395C10.8226 25.0896 15.1381 25.0896 15.8463 25.2395C16.4517 25.3793 17.1064 25.706 17.1064 26.4194C17.0712 27.0986 16.6728 27.7007 16.1222 28.0831C15.4084 28.6396 14.5707 28.992 13.6949 29.119C13.2106 29.1817 12.7347 29.1832 12.2672 29.119C11.39 28.992 10.5523 28.6396 9.83987 28.0817C9.28795 27.7007 8.88949 27.0986 8.85429 26.4194Z" fill="#333333"/>
</svg>
