<svg width="30" height="30" viewBox="0 0 30 30" fill="none" xmlns="http://www.w3.org/2000/svg">
<path fill-rule="evenodd" clip-rule="evenodd" d="M26.0083 9.52946L25.2302 8.17934C24.572 7.03694 23.1133 6.64284 21.9694 7.29834V7.29834C21.4248 7.61912 20.775 7.71013 20.1633 7.5513C19.5516 7.39247 19.0282 6.99684 18.7085 6.45165C18.5028 6.10513 18.3923 5.71043 18.3881 5.30749V5.30749C18.4067 4.66147 18.163 4.03544 17.7125 3.57203C17.262 3.10861 16.6431 2.84727 15.9968 2.84753H14.4293C13.7961 2.84753 13.1891 3.09983 12.7424 3.54862C12.2958 3.99741 12.0464 4.60568 12.0495 5.23884V5.23884C12.0307 6.5461 10.9655 7.59595 9.65815 7.59582C9.2552 7.59163 8.86051 7.48112 8.51398 7.27545V7.27545C7.37002 6.61996 5.91133 7.01406 5.25311 8.15646L4.41787 9.52946C3.76045 10.6704 4.14919 12.1282 5.28744 12.7903V12.7903C6.02732 13.2175 6.4831 14.0069 6.4831 14.8613C6.4831 15.7156 6.02732 16.505 5.28744 16.9322V16.9322C4.15063 17.5899 3.76147 19.0441 4.41787 20.1816V20.1816L5.20735 21.5432C5.51575 22.0997 6.03319 22.5103 6.64518 22.6842C7.25717 22.8582 7.91324 22.7811 8.46822 22.47V22.47C9.01379 22.1516 9.66393 22.0644 10.2741 22.2277C10.8843 22.391 11.404 22.7912 11.7176 23.3395C11.9233 23.6861 12.0338 24.0807 12.038 24.4837V24.4837C12.038 25.8044 13.1086 26.875 14.4293 26.875H15.9968C17.313 26.875 18.3818 25.8113 18.3881 24.4951V24.4951C18.3851 23.86 18.636 23.25 19.0851 22.8008C19.5343 22.3517 20.1443 22.1008 20.7794 22.1038C21.1814 22.1146 21.5745 22.2246 21.9236 22.4242V22.4242C23.0646 23.0816 24.5223 22.6929 25.1845 21.5546V21.5546L26.0083 20.1816C26.3271 19.6343 26.4147 18.9825 26.2514 18.3704C26.0882 17.7584 25.6878 17.2366 25.1387 16.9208V16.9208C24.5896 16.6049 24.1892 16.0832 24.026 15.4711C23.8627 14.8591 23.9503 14.2072 24.2691 13.6599C24.4765 13.2979 24.7767 12.9977 25.1387 12.7903V12.7903C26.2701 12.1286 26.658 10.6793 26.0083 9.5409V9.5409V9.52946Z" stroke="#828282" stroke-width="1.5" stroke-linecap="round" stroke-linejoin="round"/>
<ellipse cx="15.2188" cy="14.8612" rx="3.29519" ry="3.29519" stroke="#828282" stroke-width="1.5" stroke-linecap="round" stroke-linejoin="round"/>
</svg>
